<?xml version="1.0" encoding="UTF-8"?>
<svg width="16px" height="18px" viewBox="0 0 16 18" version="1.1" xmlns="http://www.w3.org/2000/svg" xmlns:xlink="http://www.w3.org/1999/xlink">
    <!-- Generator: Sketch 53 (72520) - https://sketchapp.com -->
    <title>Group 8 Copy</title>
    <desc>Created with Sketch.</desc>
    <defs>
        <path d="M11.2,16.3636364 L13.6,16.3636364 C14.0418278,16.3636364 14.4,15.9973239 14.4,15.5454545 L14.4,6.94561402 L8,1.85470493 L1.6,6.94561402 L1.6,15.5454545 C1.6,15.9973239 1.9581722,16.3636364 2.4,16.3636364 L4.8,16.3636364 L4.8,9 C4.8,8.54813066 5.1581722,8.18181818 5.6,8.18181818 L10.4,8.18181818 C10.8418278,8.18181818 11.2,8.54813066 11.2,9 L11.2,16.3636364 Z M9.6,16.3636364 L9.6,9.81818182 L6.4,9.81818182 L6.4,16.3636364 L9.6,16.3636364 Z M0.308847509,5.89962091 L7.50884751,0.172348186 C7.7977359,-0.0574493953 8.2022641,-0.0574493953 8.49115249,0.172348186 L15.6911525,5.89962091 C15.8860217,6.05463053 16,6.29297146 16,6.54545455 L16,15.5454545 C16,16.9010626 14.9254834,18 13.6,18 L2.4,18 C1.0745166,18 0,16.9010626 0,15.5454545 L0,6.54545455 C0,6.29297146 0.113978275,6.05463053 0.308847509,5.89962091 Z" id="path-1"></path>
    </defs>
    <g id="Symbols" stroke="none" stroke-width="1" fill="none" fill-rule="evenodd">
        <g id="Group-8-Copy">
            <polygon id="Path-17" fill="#BDC0F3" points="1.6 6.94561402 8 1.58862305 14.4 5.95179332 14.4 16.3636364 1.6 16.3636364"></polygon>
            <mask id="mask-2" fill="white">
                <use xlink:href="#path-1"></use>
            </mask>
            <use id="Combined-Shape" fill="#2738EE" fill-rule="nonzero" xlink:href="#path-1"></use>
        </g>
    </g>
</svg>